<?xml version="1.0" standalone="no"?>
<!DOCTYPE svg PUBLIC "-//W3C//DTD SVG 20010904//EN"
 "http://www.w3.org/TR/2001/REC-SVG-20010904/DTD/svg10.dtd">
<svg version="1.0" xmlns="http://www.w3.org/2000/svg"
 width="920.000000pt" height="690.000000pt" viewBox="0 0 920.000000 690.000000"
 preserveAspectRatio="xMidYMid meet">

<g transform="translate(0.000000,690.000000) scale(0.100000,-0.100000)"
fill="#000000" stroke="none">
<path d="M4438 6877 c-32 -15 -112 -82 -1913 -1627 -792 -679 -1521 -1303
-1620 -1388 -205 -176 -215 -186 -215 -217 0 -26 64 -89 132 -129 l46 -27 56
36 c31 19 845 713 1811 1540 965 828 1760 1505 1765 1505 5 0 97 -73 203 -162
180 -151 466 -391 1508 -1263 558 -467 970 -812 1254 -1050 132 -110 324 -272
427 -358 195 -163 288 -221 333 -208 34 9 118 118 118 152 0 33 18 16 -333
314 -272 230 -261 221 -381 322 l-86 73 -5 573 c-3 316 -8 579 -12 586 -10 16
-757 16 -774 -1 -9 -9 -12 -77 -12 -245 0 -128 -2 -233 -5 -233 -4 0 -82 64
-800 665 -165 138 -426 356 -580 485 -154 129 -374 313 -490 410 -313 261
-293 247 -350 254 -31 3 -60 1 -77 -7z"/>
<path d="M4036 5858 c-389 -334 -454 -393 -437 -400 27 -10 27 -24 -1 -31 -14
-4 -26 0 -35 11 -12 16 -13 15 -19 -5 -3 -13 -12 -23 -18 -23 -19 0 -378 -310
-383 -331 -3 -10 -14 -19 -24 -21 -11 -2 -82 -57 -159 -122 -118 -101 -138
-122 -127 -134 10 -13 9 -15 -10 -10 -15 4 -30 -3 -54 -28 -18 -19 -38 -34
-43 -34 -17 -1 -96 -76 -96 -91 0 -7 -3 -10 -6 -6 -3 3 -51 -32 -106 -79 -56
-47 -109 -91 -120 -98 -10 -8 -16 -20 -13 -28 4 -10 -17 -36 -63 -77 -55 -48
-69 -67 -64 -83 4 -17 2 -19 -17 -13 -17 5 -33 -4 -78 -48 -47 -46 -60 -54
-75 -46 -14 8 -25 5 -46 -13 -266 -225 -281 -240 -279 -275 3 -45 -26 -68 -48
-39 -16 21 -18 20 -202 -139 l-81 -70 644 -3 644 -2 0 -240 0 -240 -740 0
-740 0 0 115 c0 111 -4 127 -26 105 -7 -7 -21 -7 -42 1 -35 12 -30 14 -130
-70 -47 -40 -52 -48 -52 -85 0 -36 6 -48 43 -85 l44 -42 434 -2 434 -2 3 -237
2 -237 -151 -3 c-100 -2 -154 -7 -156 -14 -2 -6 5 -22 16 -35 l19 -24 519 -5
518 -5 3 -237 2 -238 -43 0 c-24 0 -48 -5 -54 -11 -8 -8 -13 -8 -17 0 -5 8
-101 11 -306 11 -274 0 -298 -1 -305 -17 -6 -17 -7 -17 -19 0 -14 18 -66 24
-66 7 0 -5 4 -10 9 -10 6 0 29 -20 52 -45 47 -50 59 -55 59 -25 0 11 3 20 8
20 12 1 1366 1 1385 0 16 0 17 -18 17 -235 l0 -235 -41 0 c-402 0 -596 -4
-608 -14 -11 -8 -15 -8 -18 2 -3 7 -24 12 -58 12 -48 0 -53 -2 -59 -25 -4 -14
-11 -25 -16 -25 -6 0 -10 -4 -10 -10 0 -5 16 -10 35 -10 34 0 35 -1 37 -42 0
-24 1 -50 0 -59 -1 -9 19 -35 43 -59 l45 -44 0 102 0 102 31 0 c22 0 32 5 36
20 3 11 12 20 20 20 10 0 12 -6 8 -20 -6 -20 -2 -20 607 -20 442 0 617 3 625
11 9 9 4 18 -17 35 -28 24 -29 24 -277 24 -136 -1 -258 -1 -271 -1 l-22 1 2
236 3 235 697 2 c384 0 700 -2 703 -5 7 -6 8 -459 1 -465 -2 -2 -140 -5 -307
-6 -254 -2 -304 -4 -301 -16 2 -11 -3 -10 -23 3 -18 12 -44 16 -90 15 l-65 -2
0 -33 c0 -30 3 -34 25 -34 l25 0 0 -127 c0 -71 1 -173 2 -229 1 -55 -1 -105
-5 -111 -4 -6 -51 -9 -119 -8 -62 0 -123 -3 -135 -9 -14 -5 -27 -5 -35 1 -10
7 -578 11 -740 4 -34 -1 -37 -22 -8 -51 19 -19 33 -20 364 -20 293 0 345 2
356 15 16 19 39 19 46 0 5 -13 103 -15 765 -15 563 0 765 3 779 12 14 9 22 9
33 -1 18 -15 67 -4 67 14 0 16 -27 45 -43 46 -7 1 -280 3 -607 4 -327 1 -601
3 -607 4 -10 1 -13 55 -13 236 l0 235 94 0 c66 0 96 4 99 13 3 9 9 9 26 -1 16
-9 117 -12 411 -12 340 0 390 2 390 15 0 19 16 19 24 0 4 -13 35 -15 186 -15
l180 0 0 -98 c0 -54 3 -102 7 -105 3 -4 13 -1 22 6 13 10 13 7 -2 -15 -20 -32
-23 -78 -4 -78 7 0 26 13 41 29 27 28 27 31 25 142 l-2 114 296 3 c261 2 296
4 301 18 6 14 0 16 -41 11 -30 -3 -59 0 -82 10 -20 9 -45 19 -56 24 -11 4
-249 8 -530 8 -280 0 -540 0 -578 0 l-67 1 2 237 3 237 800 -1 800 0 44 34
c24 18 49 33 56 33 7 0 23 15 36 33 13 17 54 62 92 98 68 68 79 83 52 73 -8
-4 -15 -2 -15 3 0 18 13 23 27 11 10 -8 17 -8 25 0 19 19 26 14 21 -12 -5 -22
-1 -25 40 -31 67 -10 118 30 146 117 17 52 35 64 66 44 42 -28 102 -15 88 19
-9 25 17 53 64 69 25 9 50 16 55 16 12 0 10 -48 -3 -55 -6 -4 -8 -12 -6 -19 2
-6 1 -36 -3 -66 -4 -30 -5 -59 -2 -64 2 -4 74 61 158 145 91 91 149 156 142
160 -6 4 -7 12 -3 18 5 9 10 9 21 0 8 -6 16 -10 17 -8 1 2 11 15 22 28 l20 24
-30 -6 c-22 -4 -36 0 -52 15 -20 19 -29 20 -70 12 -38 -7 -49 -14 -51 -31 -3
-18 4 -24 45 -35 69 -20 65 -43 -16 -85 -74 -38 -79 -39 -97 -16 -12 17 -14
17 -43 -5 l-31 -23 0 30 c0 16 -6 31 -15 35 -17 6 -19 28 -5 54 5 9 16 46 25
81 20 84 64 124 94 87 10 -12 8 -17 -9 -26 -20 -11 -21 -13 -5 -30 38 -42 79
-27 73 27 -3 24 1 28 25 31 23 3 33 13 50 50 12 26 21 68 22 93 0 46 1 47 105
142 70 65 106 91 108 81 2 -8 -3 -25 -11 -37 -30 -48 -38 -87 -22 -118 9 -16
19 -29 24 -29 5 0 30 12 56 26 l47 27 28 -22 29 -21 6 44 c11 68 5 82 -32 78
-23 -2 -35 2 -42 17 -14 26 -2 33 47 29 l37 -3 3 60 3 61 -191 159 c-104 88
-196 162 -203 164 -6 2 -15 10 -20 17 -4 7 -113 101 -241 208 -194 162 -239
196 -265 196 -32 0 -39 8 -21 26 6 6 -89 92 -274 247 l-283 237 -47 -6 -46 -7
4 42 c3 38 0 45 -37 76 -28 24 -47 33 -60 29 -14 -4 -18 -1 -15 13 3 17 -5 18
-101 14 -70 -2 -101 0 -97 7 10 17 68 32 108 29 20 -1 37 2 38 6 0 4 -115 104
-257 223 -142 118 -276 230 -298 249 -248 211 -300 252 -303 239 -2 -8 -7 -14
-12 -14 -12 0 -28 32 -23 46 3 9 -186 174 -402 349 -34 28 -172 143 -308 258
-135 114 -248 207 -250 207 -2 0 -209 -176 -461 -392z m444 222 c0 -5 -7 -10
-15 -10 -8 0 -15 5 -15 10 0 6 7 10 15 10 8 0 15 -4 15 -10z m-101 -9 c7 -5 9
-11 4 -14 -4 -3 -17 1 -28 9 -21 16 0 20 24 5z m-1 -103 c-6 -18 -28 -21 -28
-4 0 9 7 16 16 16 9 0 14 -5 12 -12z m-153 -108 c-3 -5 -10 -10 -16 -10 -5 0
-9 5 -9 10 0 6 7 10 16 10 8 0 12 -4 9 -10z m229 -56 c19 -7 21 -34 3 -34 -14
0 -37 20 -37 32 0 10 13 10 34 2z m571 -115 c0 -67 -3 -84 -15 -87 -13 -2 -15
11 -14 80 1 101 1 101 17 96 8 -3 12 -30 12 -89z m-111 35 c9 -23 8 -24 -14
-24 -11 0 -20 2 -20 4 0 12 13 36 20 36 4 0 11 -7 14 -16z m-584 -84 c0 -5 -4
-10 -9 -10 -6 0 -13 5 -16 10 -3 6 1 10 9 10 9 0 16 -4 16 -10z m-120 -45 c17
-20 7 -29 -17 -17 -15 8 -22 6 -31 -9 -13 -21 -32 -25 -32 -7 0 18 31 48 50
48 10 0 23 -7 30 -15z m-120 -24 c0 -11 -59 -20 -66 -10 -2 4 2 10 8 12 22 9
58 8 58 -2z m440 -1 c0 -5 -7 -10 -15 -10 -8 0 -15 5 -15 10 0 6 7 10 15 10 8
0 15 -4 15 -10z m-60 -9 c0 -12 -28 -22 -34 -12 -3 5 -3 11 1 15 9 9 33 7 33
-3z m-570 -25 c0 -3 -4 -8 -10 -11 -5 -3 -10 -1 -10 4 0 6 5 11 10 11 6 0 10
-2 10 -4z m490 -6 c0 -5 -7 -10 -15 -10 -8 0 -15 5 -15 10 0 6 7 10 15 10 8 0
15 -4 15 -10z m-520 -10 c0 -5 -9 -10 -20 -10 -11 0 -20 5 -20 10 0 6 9 10 20
10 11 0 20 -4 20 -10z m902 -52 c-6 -6 -15 -8 -19 -4 -4 4 -1 11 7 16 19 12
27 3 12 -12z m658 -14 c0 -9 -7 -14 -17 -12 -25 5 -28 28 -4 28 12 0 21 -6 21
-16z m-1415 -84 c3 -5 -1 -10 -10 -10 -9 0 -13 5 -10 10 3 6 8 10 10 10 2 0 7
-4 10 -10z m1495 -10 c0 -6 -7 -13 -15 -16 -20 -8 -48 3 -40 16 8 13 55 13 55
0z m-1442 -11 c-2 -6 -8 -10 -13 -10 -5 0 -11 4 -13 10 -2 6 4 11 13 11 9 0
15 -5 13 -11z m477 1 c-3 -5 -13 -10 -21 -10 -8 0 -14 5 -14 10 0 6 9 10 21
10 11 0 17 -4 14 -10z m-5 -30 c0 -5 -7 -10 -15 -10 -8 0 -15 5 -15 10 0 6 7
10 15 10 8 0 15 -4 15 -10z m-570 -15 c0 -8 -6 -15 -14 -15 -7 0 -16 -9 -19
-20 -3 -11 -12 -20 -21 -20 -22 0 -20 12 7 43 25 29 47 35 47 12z m-110 -80
c0 -16 -9 -19 -34 -9 -25 9 -19 24 9 24 16 0 25 -6 25 -15z m830 -15 c0 -5 -4
-10 -9 -10 -6 0 -13 5 -16 10 -3 6 1 10 9 10 9 0 16 -4 16 -10z m95 1 c27 -6
29 -10 32 -54 2 -31 0 -46 -7 -42 -5 3 -10 12 -10 19 0 7 -18 26 -40 41 -59
41 -52 53 25 36z m-935 -31 c0 -6 -18 -10 -40 -10 -44 0 -53 16 -17 29 23 9
57 -2 57 -19z m95 20 c3 -5 1 -10 -4 -10 -6 0 -11 5 -11 10 0 6 2 10 4 10 3 0
8 -4 11 -10z m387 -15 c0 -5 -5 -11 -11 -13 -6 -2 -11 4 -11 13 0 9 5 15 11
13 6 -2 11 -8 11 -13z m-792 -30 c0 -15 -43 -12 -48 3 -3 10 4 13 22 10 15 -2
26 -7 26 -13z m1080 -13 c0 -10 5 -23 12 -30 9 -9 8 -12 -5 -12 -9 0 -17 3
-17 8 0 4 -3 17 -6 30 -4 13 -2 22 5 22 6 0 11 -8 11 -18z m-1375 -1 c7 -13
-24 -43 -36 -35 -6 4 -3 14 7 25 20 22 21 22 29 10z m739 -17 c3 -8 3 -26 0
-38 -5 -21 -8 -22 -30 -12 -24 11 -33 36 -14 36 6 0 10 7 10 15 0 20 26 19 34
-1z m-294 -4 c0 -5 -7 -10 -15 -10 -8 0 -15 5 -15 10 0 6 7 10 15 10 8 0 15
-4 15 -10z m160 0 c0 -5 -7 -10 -15 -10 -8 0 -15 5 -15 10 0 6 7 10 15 10 8 0
15 -4 15 -10z m50 6 c0 -3 -4 -8 -10 -11 -5 -3 -10 -1 -10 4 0 6 5 11 10 11 6
0 10 -2 10 -4z m138 -44 c2 -7 -3 -12 -12 -12 -9 0 -16 7 -16 16 0 17 22 14
28 -4z m382 -18 c0 -2 -7 -4 -15 -4 -8 0 -15 4 -15 10 0 5 7 7 15 4 8 -4 15
-8 15 -10z m260 0 c0 -8 -4 -12 -10 -9 -5 3 -10 10 -10 16 0 5 5 9 10 9 6 0
10 -7 10 -16z m-52 -64 c-7 -10 -14 -18 -15 -16 -6 6 9 36 18 36 5 0 4 -9 -3
-20z m85 -46 c-3 -9 -12 -13 -21 -9 -10 4 -23 -3 -34 -17 -13 -17 -20 -20 -29
-11 -21 21 17 51 68 52 16 1 21 -3 16 -15z m638 -10 c12 -14 11 -16 -5 -13
-11 2 -21 10 -24 17 -5 17 13 15 29 -4z m-2188 -6 c28 -14 36 -28 15 -28 -16
0 -67 39 -52 40 5 0 22 -6 37 -12z m84 -34 c-9 -9 -28 6 -21 18 4 6 10 6 17
-1 6 -6 8 -13 4 -17z m1463 0 c0 -17 -22 -14 -28 4 -2 7 3 12 12 12 9 0 16 -7
16 -16z m850 -4 c0 -5 -2 -10 -4 -10 -3 0 -8 5 -11 10 -3 6 -1 10 4 10 6 0 11
-4 11 -10z m-2301 -37 c13 -8 28 -28 34 -44 11 -27 13 -28 91 -31 l81 -3 42
-84 c24 -46 43 -88 43 -92 0 -5 -162 -9 -361 -9 -313 0 -360 2 -356 15 4 8 2
17 -3 20 -16 10 -11 25 5 19 9 -4 19 3 26 20 11 23 9 28 -14 47 -34 26 -35 47
-2 25 34 -22 42 -20 60 14 15 29 17 30 94 30 78 0 79 0 91 30 15 37 32 51 73
60 37 9 62 4 96 -17z m1421 7 l107 0 264 -91 c145 -50 343 -118 439 -151 96
-33 185 -62 198 -65 34 -8 37 -23 5 -23 -15 0 -111 4 -213 10 -102 5 -232 12
-290 15 -58 2 -160 8 -226 11 l-122 6 -27 -81 -27 -81 -201 2 -202 3 -26 80
c-21 63 -30 80 -45 78 -146 -14 -472 -38 -514 -38 l-55 0 -3 138 c-2 117 -5
137 -18 137 -13 0 -11 6 7 25 l24 25 392 0 c271 0 394 3 399 11 4 8 9 8 17 0
7 -7 54 -11 117 -11z m270 -5 c0 -8 -4 -15 -10 -15 -5 0 -10 7 -10 15 0 8 5
15 10 15 6 0 10 -7 10 -15z m1125 5 c11 -17 -5 -32 -21 -19 -7 6 -11 15 -8 20
7 12 21 11 29 -1z m-2650 -30 c3 -5 1 -10 -4 -10 -6 0 -11 5 -11 10 0 6 2 10
4 10 3 0 8 -4 11 -10z m2578 -38 c15 -26 32 -54 37 -62 23 -36 124 -217 205
-369 292 -544 426 -924 372 -1053 -25 -60 -86 -82 -291 -104 -72 -7 -166 -14
-208 -14 l-77 0 -5 53 c-3 28 -10 117 -16 197 -32 495 -45 649 -51 633 -3 -10
-9 -67 -13 -128 -4 -60 -11 -162 -16 -225 -5 -63 -14 -191 -20 -285 -6 -93
-13 -188 -16 -209 l-6 -39 -127 6 c-228 12 -384 39 -422 73 -44 39 -48 123
-14 271 31 132 49 189 77 243 58 113 99 214 101 252 1 24 6 37 14 34 6 -3 30
31 54 77 148 288 230 438 376 690 9 15 19 6 46 -41z m-3043 23 c-12 -15 -30
-12 -30 6 0 5 10 9 21 9 18 0 19 -2 9 -15z m3110 1 c0 -3 -4 -8 -10 -11 -5 -3
-10 -1 -10 4 0 6 5 11 10 11 6 0 10 -2 10 -4z m-320 -15 c0 -12 -28 -22 -34
-12 -3 5 -3 11 1 15 9 9 33 7 33 -3z m-20 -45 c0 -3 -4 -8 -10 -11 -5 -3 -10
-1 -10 4 0 6 5 11 10 11 6 0 10 -2 10 -4z m64 -37 c-3 -5 -14 -9 -26 -9 -17 0
-18 3 -8 14 12 15 44 10 34 -5z m-2984 -91 c0 -6 -7 -7 -16 -4 -9 3 -18 6 -20
6 -3 0 -3 4 1 10 7 11 35 2 35 -12z m2990 12 c0 -5 -2 -10 -4 -10 -3 0 -8 5
-11 10 -3 6 -1 10 4 10 6 0 11 -4 11 -10z m570 -35 c0 -24 -3 -25 -62 -25 -35
0 -83 -7 -107 -16 -24 -8 -46 -12 -49 -9 -11 11 15 25 67 35 30 5 59 14 65 19
10 8 39 16 74 20 7 0 12 -10 12 -24z m-570 -10 c0 -8 -4 -15 -10 -15 -5 0 -10
7 -10 15 0 8 5 15 10 15 6 0 10 -7 10 -15z m-2567 -34 c287 -1 317 -3 317 -17
0 -10 -31 -123 -69 -253 -39 -130 -74 -254 -79 -276 -30 -124 -53 -204 -66
-231 -9 -16 -22 -59 -30 -94 -8 -36 -33 -123 -54 -195 -22 -71 -43 -142 -46
-157 -4 -16 -11 -28 -16 -28 -5 0 -12 12 -16 28 -17 72 -224 784 -230 791 -2
2 -14 -3 -28 -12 -22 -15 -36 -13 -36 3 0 4 14 13 30 20 32 13 40 37 15 46 -9
4 -12 15 -9 32 4 19 -3 39 -22 67 -18 27 -27 54 -29 85 0 25 -4 52 -7 60 -25
70 -35 120 -24 131 2 2 22 3 43 3 21 -1 181 -2 356 -3z m1807 -31 c0 -5 -4
-10 -10 -10 -5 0 -10 5 -10 10 0 6 5 10 10 10 6 0 10 -4 10 -10z m-321 -532
c-2 -214 -5 -391 -8 -393 -3 -2 -60 -5 -126 -6 l-120 -4 -3 397 -2 397 117 3
c65 2 124 1 131 -1 10 -3 12 -84 11 -393z m-2069 322 c0 -11 -4 -20 -10 -20
-5 0 -10 9 -10 20 0 11 5 20 10 20 6 0 10 -9 10 -20z m3665 0 c3 -5 1 -10 -4
-10 -6 0 -11 5 -11 10 0 6 2 10 4 10 3 0 8 -4 11 -10z m-847 -59 c3 -8 -1 -12
-9 -9 -7 2 -15 10 -17 17 -3 8 1 12 9 9 7 -2 15 -10 17 -17z m1292 -11 c0 -5
-4 -10 -10 -10 -5 0 -10 5 -10 10 0 6 5 10 10 10 6 0 10 -4 10 -10z m-1246
-21 c-3 -5 -10 -7 -15 -3 -5 3 -7 10 -3 15 3 5 10 7 15 3 5 -3 7 -10 3 -15z
m-46 -71 c19 -19 14 -30 -10 -26 -13 2 -24 11 -26 21 -4 20 18 23 36 5z
m-2658 -48 c0 -24 -55 -88 -67 -77 -4 5 -1 14 8 20 12 9 13 16 6 28 -15 24 -1
49 28 49 18 0 25 -5 25 -20z m2648 -52 c-2 -6 -10 -14 -16 -16 -7 -2 -10 2 -6
12 7 18 28 22 22 4z m-2808 -78 c0 -5 -4 -10 -9 -10 -6 0 -13 5 -16 10 -3 6 1
10 9 10 9 0 16 -4 16 -10z m-220 -55 c0 -8 -4 -15 -10 -15 -5 0 -10 7 -10 15
0 8 5 15 10 15 6 0 10 -7 10 -15z m210 -30 c0 -8 -4 -15 -10 -15 -5 0 -10 7
-10 15 0 8 5 15 10 15 6 0 10 -7 10 -15z m4325 -24 c3 -5 1 -12 -5 -16 -5 -3
-10 1 -10 9 0 18 6 21 15 7z m-4983 -26 c0 -5 -5 -11 -11 -13 -6 -2 -11 4 -11
13 0 9 5 15 11 13 6 -2 11 -8 11 -13z m-2 -95 c0 -5 -2 -10 -4 -10 -3 0 -8 5
-11 10 -3 6 -1 10 4 10 6 0 11 -4 11 -10z m5130 -15 c0 -8 -7 -15 -15 -15 -8
0 -15 7 -15 15 0 8 7 15 15 15 8 0 15 -7 15 -15z m-1121 -187 c11 -169 23
-340 36 -495 l6 -63 -55 0 c-30 0 -57 3 -59 8 -2 4 2 84 9 177 7 94 18 244 24
335 9 151 17 220 24 220 2 0 8 -82 15 -182z m1581 81 c0 -5 -4 -9 -10 -9 -5 0
-10 7 -10 16 0 8 5 12 10 9 6 -3 10 -10 10 -16z m-735 1 c-3 -5 -10 -10 -16
-10 -5 0 -9 5 -9 10 0 6 7 10 16 10 8 0 12 -4 9 -10z m175 -20 c0 -5 -5 -10
-11 -10 -5 0 -7 5 -4 10 3 6 8 10 11 10 2 0 4 -4 4 -10z m510 0 c0 -5 -4 -10
-10 -10 -5 0 -10 5 -10 10 0 6 5 10 10 10 6 0 10 -4 10 -10z m-2775 -85 c53
-158 59 -258 25 -419 -25 -123 -28 -427 -5 -547 41 -215 39 -322 -5 -415 -30
-61 -104 -96 -215 -102 -71 -4 -83 -2 -107 18 -65 51 -76 214 -30 444 24 124
27 159 26 315 -1 152 -5 192 -29 296 -41 183 -35 255 40 438 7 16 21 17 147
15 l140 -3 13 -40z m2085 10 c0 -8 -7 -15 -15 -15 -16 0 -20 12 -8 23 11 12
23 8 23 -8z m180 -5 c0 -5 -7 -10 -16 -10 -8 0 -12 5 -9 10 3 6 10 10 16 10 5
0 9 -4 9 -10z m-100 -85 c0 -8 -4 -15 -10 -15 -5 0 -10 7 -10 15 0 8 5 15 10
15 6 0 10 -7 10 -15z m-1900 -40 c0 -8 -4 -15 -10 -15 -5 0 -10 7 -10 15 0 8
5 15 10 15 6 0 10 -7 10 -15z m2085 -25 c-3 -5 -10 -10 -16 -10 -5 0 -9 5 -9
10 0 6 7 10 16 10 8 0 12 -4 9 -10z m-2775 -26 c0 -8 -4 -14 -10 -14 -5 0 -10
9 -10 21 0 11 5 17 10 14 6 -3 10 -13 10 -21z m2480 -14 c0 -5 -4 -10 -10 -10
-5 0 -10 5 -10 10 0 6 5 10 10 10 6 0 10 -4 10 -10z m-2455 -30 c-3 -5 -10
-10 -16 -10 -5 0 -9 5 -9 10 0 6 7 10 16 10 8 0 12 -4 9 -10z m-57 -47 c6 -19
-35 -16 -42 3 -4 11 0 15 16 12 12 -2 23 -9 26 -15z m-3148 -33 c0 -5 -4 -10
-10 -10 -5 0 -10 5 -10 10 0 6 5 10 10 10 6 0 10 -4 10 -10z m80 -20 c0 -5 -4
-10 -10 -10 -5 0 -10 5 -10 10 0 6 5 10 10 10 6 0 10 -4 10 -10z m-30 -40 c0
-5 -4 -10 -10 -10 -5 0 -10 5 -10 10 0 6 5 10 10 10 6 0 10 -4 10 -10z m3757
-86 c-9 -9 -28 6 -21 18 4 6 10 6 17 -1 6 -6 8 -13 4 -17z m2163 -4 c0 -5 -11
-10 -25 -10 -14 0 -25 5 -25 10 0 6 11 10 25 10 14 0 25 -4 25 -10z m50 0 c0
-5 -2 -10 -4 -10 -3 0 -8 5 -11 10 -3 6 -1 10 4 10 6 0 11 -4 11 -10z m425 0
c3 -5 1 -10 -4 -10 -6 0 -11 5 -11 10 0 6 2 10 4 10 3 0 8 -4 11 -10z m-4140
-32 c3 -13 4 -120 3 -238 l-3 -215 -610 -5 c-335 -3 -653 -3 -705 0 l-95 5 -2
224 c-1 123 1 230 4 237 4 12 125 14 704 14 l699 0 5 -22z m960 -28 c4 -6 -7
-10 -24 -10 -17 0 -31 5 -31 10 0 6 11 10 24 10 14 0 28 -4 31 -10z m2135 -20
c0 -5 -5 -10 -11 -10 -5 0 -7 5 -4 10 3 6 8 10 11 10 2 0 4 -4 4 -10z m-1480
-25 c-7 -9 -15 -13 -17 -11 -7 7 7 26 19 26 6 0 6 -6 -2 -15z m80 -15 c0 -5
-18 -14 -40 -20 -24 -6 -40 -17 -40 -25 0 -8 -4 -15 -10 -15 -22 0 -9 40 18
54 31 17 72 21 72 6z m893 -4 c18 -7 45 -28 60 -45 l27 -33 0 -370 c0 -320 -2
-374 -16 -396 -25 -43 -63 -65 -119 -70 -58 -5 -95 10 -135 53 l-25 27 -5 346
c-3 191 -1 365 3 387 19 91 119 139 210 101z m-1000 -71 c1 -5 -6 -11 -15 -13
-11 -2 -18 3 -18 13 0 17 30 18 33 0z m2617 -5 c0 -5 -2 -10 -4 -10 -3 0 -8 5
-11 10 -3 6 -1 10 4 10 6 0 11 -4 11 -10z m-420 -55 c0 -9 -9 -15 -25 -15 -24
0 -32 10 -18 23 12 13 43 7 43 -8z m-2835 -4 c7 -12 -12 -24 -25 -16 -11 7 -4
25 10 25 5 0 11 -4 15 -9z m747 -6 c0 -5 -5 -11 -11 -13 -6 -2 -11 4 -11 13 0
9 5 15 11 13 6 -2 11 -8 11 -13z m-992 -29 c0 -24 -19 -66 -29 -66 -6 0 -15 9
-21 21 -9 16 -8 25 6 40 20 22 44 25 44 5z m960 -41 c0 -9 -9 -15 -25 -15 -26
0 -34 15 -12 23 23 10 37 7 37 -8z m-120 -135 c0 -5 -4 -10 -10 -10 -5 0 -10
5 -10 10 0 6 5 10 10 10 6 0 10 -4 10 -10z m-775 -340 l0 -235 -705 0 -705 0
0 230 c0 147 3 233 10 237 5 4 323 7 705 5 l695 -2 0 -235z m1150 230 c3 -5 3
-20 -1 -34 -5 -21 -9 -24 -25 -15 -19 10 -26 39 -12 52 9 10 31 8 38 -3z m40
-41 c-3 -4 -12 -6 -20 -3 -8 4 -13 10 -10 15 3 4 12 6 20 3 8 -4 13 -10 10
-15z m1050 -68 c42 -9 25 -14 -35 -11 -46 3 -77 20 -35 19 17 0 48 -4 70 -8z
m-894 -64 c-13 -13 -26 -3 -16 12 3 6 11 8 17 5 6 -4 6 -10 -1 -17z m1305
-135 c-14 -15 -26 -21 -26 -14 0 6 -7 12 -15 12 -8 0 -15 5 -15 10 0 6 13 10
29 10 18 0 32 7 36 18 6 13 9 14 12 3 3 -7 -6 -25 -21 -39z m-506 22 c0 -2 -9
-4 -21 -4 -11 0 -18 4 -14 10 5 8 35 3 35 -6z m-1062 -75 c-2 -6 -8 -10 -13
-10 -5 0 -11 4 -13 10 -2 6 4 11 13 11 9 0 15 -5 13 -11z m-3278 -159 c0 -5
-4 -10 -10 -10 -5 0 -10 5 -10 10 0 6 5 10 10 10 6 0 10 -4 10 -10z m3010
-284 c0 -16 -18 -31 -27 -22 -8 8 5 36 17 36 5 0 10 -6 10 -14z m-1345 -236
c3 -5 -1 -10 -10 -10 -9 0 -13 5 -10 10 3 6 8 10 10 10 2 0 7 -4 10 -10z m685
0 c0 -5 -4 -10 -9 -10 -6 0 -13 5 -16 10 -3 6 1 10 9 10 9 0 16 -4 16 -10z"/>
<path d="M6537 4526 c-4 -10 -1 -19 9 -23 21 -8 26 1 11 22 -13 16 -14 16 -20
1z"/>
<path d="M1300 2593 c0 -5 16 -21 36 -36 30 -25 39 -27 62 -19 15 5 36 10 47
10 36 1 170 33 179 42 7 7 -50 10 -157 10 -92 0 -167 -3 -167 -7z"/>
</g>
</svg>
